<svg xmlns="http://www.w3.org/2000/svg" xmlns:xlink="http://www.w3.org/1999/xlink" width="200" height="200" viewBox="0 0 200 200">
  <defs>
    <clipPath id="clip-adobexd">
      <rect width="200" height="200"/>
    </clipPath>
  </defs>
  <g id="adobexd" clip-path="url(#clip-adobexd)">
    <rect width="200" height="200" fill="#fff"/>
    <g id="adobe-xd" transform="translate(25.957 27.833)">
      <path id="Path_1" data-name="Path 1" d="M10,10H145.821V142.117H10Z" transform="translate(-3.826 -3.826)" fill="#2e001e"/>
      <path id="Path_2" data-name="Path 2" d="M0,0V144.464H148.168V0ZM6.174,6.174H141.995V138.29H6.174Z" fill="#ff2bc2"/>
      <path id="Path_3" data-name="Path 3" d="M124.9,81.923a8.477,8.477,0,0,0-3.581-.617c-7.779,0-12.965,5.988-12.965,15.928,0,11.36,5.309,15.928,12.224,15.928a11.648,11.648,0,0,0,4.26-.679V81.923Zm-27.658,15.8c0-14.385,9.261-25.621,24.448-25.621a27.377,27.377,0,0,1,3.21.123V56.179a.619.619,0,0,1,.617-.617h9.94c.494,0,.617.185.617.494v56.427a43.974,43.974,0,0,0,.309,6.05c0,.432,0,.494-.37.679a36.775,36.775,0,0,1-15.8,3.581c-13.4,0-22.966-8.273-22.966-25.065Zm-21.052-10L93.481,121.25c.309.494.123.988-.37.988H82.368a1.211,1.211,0,0,1-1.3-.8q-5.927-12.224-12.1-25.374h-.123c-3.7,8.273-7.779,17.286-11.73,25.436a1.186,1.186,0,0,1-1.111.679H45.758c-.617,0-.679-.494-.37-.864L62.3,88.776l-16.36-32.35a.547.547,0,0,1,.432-.926H56.994c.617,0,.926.123,1.111.679,3.889,8.211,7.841,16.3,11.545,24.571h.123c3.581-8.149,7.532-16.36,11.3-24.448.309-.494.494-.8,1.111-.8h9.94c.494,0,.679.37.37.926Z" transform="translate(-17.297 -21.236)" fill="#ff2bc2"/>
    </g>
  </g>
</svg>
