<svg xmlns="http://www.w3.org/2000/svg" xmlns:xlink="http://www.w3.org/1999/xlink" width="200" height="200" viewBox="0 0 200 200">
  <defs>
    <clipPath id="clip-adobexd">
      <rect width="200" height="200"/>
    </clipPath>
  </defs>
  <g id="adobexd" clip-path="url(#clip-adobexd)">
    <rect width="200" height="200" fill="#fff"/>
    <g id="adobe-xd" transform="translate(21 23)">
      <path id="Path_1" data-name="Path 1" d="M10,10H154.908V150.956H10Z" transform="translate(-3.413 -3.413)" fill="#2e001e"/>
      <path id="Path_2" data-name="Path 2" d="M0,0V154.13H158.082V0ZM6.587,6.587H151.495V147.543H6.587Z" fill="#ff2bc2"/>
      <path id="Path_3" data-name="Path 3" d="M130.237,83.691a9.044,9.044,0,0,0-3.82-.659c-8.3,0-13.832,6.389-13.832,16.994,0,12.12,5.665,16.994,13.042,16.994a12.427,12.427,0,0,0,4.545-.725v-32.6Zm-29.509,16.862c0-15.347,9.88-27.335,26.083-27.335a29.208,29.208,0,0,1,3.425.132V56.225a.66.66,0,0,1,.659-.659h10.6c.527,0,.659.2.659.527v60.2a46.917,46.917,0,0,0,.329,6.455c0,.461,0,.527-.4.725a39.235,39.235,0,0,1-16.862,3.82c-14.293,0-24.5-8.826-24.5-26.742ZM78.268,89.883,96.71,125.649c.329.527.132,1.054-.4,1.054H84.854a1.293,1.293,0,0,1-1.383-.856Q77.148,112.8,70.561,98.775h-.132c-3.952,8.826-8.3,18.443-12.515,27.137a1.265,1.265,0,0,1-1.186.725H45.795c-.659,0-.725-.527-.4-.922L63.447,91,45.993,56.488a.583.583,0,0,1,.461-.988H57.783c.659,0,.988.132,1.186.725,4.15,8.76,8.365,17.389,12.317,26.215h.132c3.82-8.694,8.036-17.455,12.054-26.083.329-.527.527-.856,1.186-.856h10.6c.527,0,.725.4.4.988Z" transform="translate(-15.43 -18.944)" fill="#ff2bc2"/>
    </g>
  </g>
</svg>
