<svg xmlns="http://www.w3.org/2000/svg" xmlns:xlink="http://www.w3.org/1999/xlink" width="200" height="200" viewBox="0 0 200 200">
  <defs>
    <clipPath id="clip-adobexd">
      <rect width="200" height="200"/>
    </clipPath>
  </defs>
  <g id="adobexd" clip-path="url(#clip-adobexd)">
    <rect width="200" height="200" fill="#fff"/>
    <g id="adobe-xd" transform="translate(23 25)">
      <path id="Path_1" data-name="Path 1" d="M10,10H151.094V147.246H10Z" transform="translate(-3.587 -3.587)" fill="#2e001e"/>
      <path id="Path_2" data-name="Path 2" d="M0,0V150.073H153.921V0ZM6.413,6.413H147.508V143.66H6.413Z" fill="#ff2bc2"/>
      <path id="Path_3" data-name="Path 3" d="M128,82.949a8.806,8.806,0,0,0-3.72-.641c-8.081,0-13.468,6.221-13.468,16.547,0,11.8,5.516,16.547,12.7,16.547a12.1,12.1,0,0,0,4.425-.705V82.949ZM99.267,99.368c0-14.943,9.62-26.616,25.4-26.616A28.441,28.441,0,0,1,128,72.88V56.205a.643.643,0,0,1,.641-.641h10.326c.513,0,.641.192.641.513V114.7a45.682,45.682,0,0,0,.321,6.285c0,.449,0,.513-.385.705a38.2,38.2,0,0,1-16.418,3.72c-13.917,0-23.858-8.594-23.858-26.038ZM77.4,88.978,95.355,123.8c.321.513.128,1.026-.385,1.026H83.811a1.259,1.259,0,0,1-1.347-.834q-6.157-12.7-12.57-26.359h-.128c-3.848,8.594-8.081,17.957-12.185,26.423a1.232,1.232,0,0,1-1.154.705H45.779c-.641,0-.705-.513-.385-.9l17.573-33.8-17-33.606a.568.568,0,0,1,.449-.962H57.452c.641,0,.962.128,1.154.705,4.04,8.53,8.145,16.931,11.993,25.525h.128c3.72-8.466,7.824-17,11.736-25.4.321-.513.513-.834,1.154-.834H93.944c.513,0,.705.385.385.962Z" transform="translate(-16.214 -19.906)" fill="#ff2bc2"/>
    </g>
  </g>
</svg>
