<?xml version="1.0" encoding="UTF-8"?>
<svg width="122px" height="71px" viewBox="0 0 122 71" version="1.1" xmlns="http://www.w3.org/2000/svg" xmlns:xlink="http://www.w3.org/1999/xlink">
    <!-- Generator: Sketch 63.1 (92452) - https://sketch.com -->
    <title>focusmate</title>
    <desc>Created with Sketch.</desc>
    <g id="Site" stroke="none" stroke-width="1" fill="none" fill-rule="evenodd">
        <path d="M73.0383328,0 C77.6195351,9.34803628e-16 81.3333333,3.71379825 81.3333333,8.29500055 L81.3333333,62.7049994 C81.3333333,67.2862018 77.6195351,71 73.0383328,71 L8.29500055,71 C3.71379825,71 -2.9916782e-15,67.2862018 0,62.7049994 L0,8.29500055 C1.21532137e-15,3.71379825 3.71379825,2.61791005e-15 8.29500055,0 L73.0383328,0 Z M118.919,5.21711114 C120.620589,5.21711114 122,6.59652192 122,8.29811135 L122,8.29811135 L122,61.9956561 C122,62.4848622 121.883507,62.9670363 121.660161,63.4022822 C120.883303,64.9161838 119.026275,65.5136755 117.512374,64.7368174 L117.512374,64.7368174 L88.2073169,49.6989367 C87.4165863,49.2931735 86.9193368,48.4791135 86.9193368,47.590351 L86.9193368,47.590351 L86.9193368,22.5971076 C86.9193368,21.7058931 87.419306,20.89002 88.213385,20.4854192 L88.213385,20.4854192 L117.520262,5.55291639 C117.95348,5.33218229 118.432789,5.21711114 118.919,5.21711114 Z" id="focusmate" fill="#35319A"></path>
    </g>
</svg>