<svg width="265" height="36" viewBox="0 0 265 36" fill="none" xmlns="http://www.w3.org/2000/svg">
<path d="M48.08 25.584L49.664 25.392V15.936L48.128 15.504V13.848L51.848 13.344H51.92L52.52 13.824V14.352L52.448 16.296H52.52C52.632 15.976 52.896 15.584 53.312 15.12C53.728 14.64 54.248 14.224 54.872 13.872C55.512 13.504 56.2 13.32 56.936 13.32C57.288 13.32 57.592 13.368 57.848 13.464V17.064C57.368 16.728 56.784 16.56 56.096 16.56C54.928 16.56 53.912 16.872 53.048 17.496V25.368L55.832 25.584V27H48.08V25.584ZM65.4249 27.264C63.3129 27.264 61.7369 26.648 60.6969 25.416C59.6729 24.168 59.1609 22.472 59.1609 20.328C59.1609 18.888 59.4249 17.64 59.9529 16.584C60.4969 15.528 61.2569 14.72 62.2329 14.16C63.2089 13.6 64.3369 13.32 65.6169 13.32C67.2169 13.32 68.4489 13.744 69.3129 14.592C70.1769 15.424 70.6249 16.616 70.6569 18.168C70.6569 19.224 70.5929 20.008 70.4649 20.52H62.6649C62.7289 21.976 63.0729 23.112 63.6969 23.928C64.3209 24.728 65.2089 25.128 66.3609 25.128C66.9849 25.128 67.6249 25.024 68.2809 24.816C68.9529 24.608 69.4809 24.36 69.8649 24.072L70.4649 25.392C70.0329 25.856 69.3289 26.288 68.3529 26.688C67.3929 27.072 66.4169 27.264 65.4249 27.264ZM67.2969 19.08C67.3289 18.632 67.3449 18.288 67.3449 18.048C67.3449 15.92 66.6329 14.856 65.2089 14.856C64.4249 14.856 63.8169 15.168 63.3849 15.792C62.9529 16.416 62.7129 17.512 62.6649 19.08H67.2969ZM72.5722 25.56L73.9162 25.344V15.936L72.3802 15.504V13.848L76.3642 13.344L76.6522 13.536L77.0122 14.328V15.336C77.5402 14.824 78.2922 14.376 79.2682 13.992C80.2602 13.592 81.1162 13.392 81.8362 13.392C82.7002 13.392 83.3962 13.536 83.9242 13.824C84.4682 14.112 84.8762 14.56 85.1482 15.168C85.6762 14.688 86.3722 14.272 87.2362 13.92C88.1002 13.568 88.9482 13.392 89.7802 13.392C91.2042 13.392 92.2122 13.808 92.8042 14.64C93.3962 15.472 93.6922 16.832 93.6922 18.72V25.344L95.2522 25.56V27H89.0362V25.56L90.2842 25.344V18.816C90.2842 17.568 90.1322 16.696 89.8282 16.2C89.5402 15.688 88.9802 15.432 88.1482 15.432C87.7002 15.432 87.2362 15.536 86.7562 15.744C86.2922 15.936 85.8762 16.176 85.5082 16.464C85.6202 17.072 85.6762 17.832 85.6762 18.744V25.344L87.1642 25.56V27H80.9002V25.56L82.2202 25.344V18.744C82.2202 17.912 82.1642 17.264 82.0522 16.8C81.9562 16.32 81.7642 15.976 81.4762 15.768C81.1882 15.544 80.7722 15.432 80.2282 15.432C79.7162 15.432 79.2042 15.552 78.6922 15.792C78.1962 16.016 77.7482 16.288 77.3482 16.608V25.344L78.7642 25.56V27H72.5722V25.56ZM96.8769 20.352C96.8769 18.848 97.1729 17.568 97.7649 16.512C98.3729 15.456 99.1809 14.664 100.189 14.136C101.197 13.592 102.293 13.32 103.477 13.32C105.493 13.32 107.045 13.944 108.133 15.192C109.237 16.424 109.789 18.104 109.789 20.232C109.789 21.752 109.485 23.048 108.877 24.12C108.285 25.176 107.485 25.968 106.477 26.496C105.485 27.008 104.389 27.264 103.189 27.264C101.189 27.264 99.6369 26.648 98.5329 25.416C97.4289 24.168 96.8769 22.48 96.8769 20.352ZM103.381 25.704C105.189 25.704 106.093 23.96 106.093 20.472C106.093 18.648 105.877 17.264 105.445 16.32C105.013 15.36 104.309 14.88 103.333 14.88C101.477 14.88 100.549 16.624 100.549 20.112C100.549 21.936 100.773 23.328 101.221 24.288C101.685 25.232 102.405 25.704 103.381 25.704ZM116.003 27.216C114.995 27.216 114.251 26.984 113.771 26.52C113.291 26.056 113.051 25.32 113.051 24.312V15.504H111.491V14.256C111.619 14.208 111.851 14.128 112.187 14.016C112.523 13.888 112.779 13.784 112.955 13.704C113.227 13.496 113.459 13.136 113.651 12.624C113.795 12.288 114.059 11.456 114.443 10.128H116.363L116.459 13.656H120.131V15.504H116.483V22.248C116.483 23.144 116.507 23.776 116.555 24.144C116.603 24.512 116.707 24.752 116.867 24.864C117.027 24.96 117.307 25.008 117.707 25.008C118.107 25.008 118.523 24.968 118.955 24.888C119.387 24.792 119.747 24.68 120.035 24.552L120.491 25.896C120.043 26.232 119.387 26.536 118.523 26.808C117.659 27.08 116.819 27.216 116.003 27.216ZM127.816 27.264C125.704 27.264 124.128 26.648 123.088 25.416C122.064 24.168 121.552 22.472 121.552 20.328C121.552 18.888 121.816 17.64 122.344 16.584C122.888 15.528 123.648 14.72 124.624 14.16C125.6 13.6 126.728 13.32 128.008 13.32C129.608 13.32 130.84 13.744 131.704 14.592C132.568 15.424 133.016 16.616 133.048 18.168C133.048 19.224 132.984 20.008 132.856 20.52H125.056C125.12 21.976 125.464 23.112 126.088 23.928C126.712 24.728 127.6 25.128 128.752 25.128C129.376 25.128 130.016 25.024 130.672 24.816C131.344 24.608 131.872 24.36 132.256 24.072L132.856 25.392C132.424 25.856 131.72 26.288 130.744 26.688C129.784 27.072 128.808 27.264 127.816 27.264ZM129.688 19.08C129.72 18.632 129.736 18.288 129.736 18.048C129.736 15.92 129.024 14.856 127.6 14.856C126.816 14.856 126.208 15.168 125.776 15.792C125.344 16.416 125.104 17.512 125.056 19.08H129.688ZM134.699 23.256C134.699 21.8 135.427 20.704 136.883 19.968C138.355 19.232 140.251 18.856 142.571 18.84V18.288C142.571 17.632 142.499 17.12 142.355 16.752C142.227 16.384 141.979 16.112 141.611 15.936C141.259 15.744 140.739 15.648 140.051 15.648C139.267 15.648 138.563 15.752 137.939 15.96C137.315 16.152 136.667 16.408 135.995 16.728L135.251 15.192C135.491 14.984 135.891 14.736 136.451 14.448C137.027 14.16 137.707 13.912 138.491 13.704C139.275 13.48 140.083 13.368 140.915 13.368C142.147 13.368 143.107 13.528 143.795 13.848C144.499 14.168 145.003 14.68 145.307 15.384C145.611 16.088 145.763 17.032 145.763 18.216V25.56H147.059V26.904C146.739 26.984 146.283 27.064 145.691 27.144C145.099 27.224 144.579 27.264 144.131 27.264C143.587 27.264 143.219 27.184 143.027 27.024C142.851 26.864 142.763 26.536 142.763 26.04V25.392C142.331 25.872 141.771 26.304 141.083 26.688C140.395 27.072 139.619 27.264 138.755 27.264C138.019 27.264 137.339 27.112 136.715 26.808C136.107 26.488 135.619 26.032 135.251 25.44C134.883 24.832 134.699 24.104 134.699 23.256ZM140.291 25.272C140.627 25.272 141.011 25.176 141.443 24.984C141.875 24.776 142.251 24.528 142.571 24.24V20.304C141.131 20.304 140.051 20.552 139.331 21.048C138.627 21.528 138.275 22.152 138.275 22.92C138.275 23.688 138.451 24.272 138.803 24.672C139.171 25.072 139.667 25.272 140.291 25.272ZM161.829 19.896C161.829 21.24 161.549 22.472 160.989 23.592C160.445 24.712 159.637 25.608 158.565 26.28C157.509 26.936 156.245 27.264 154.773 27.264C154.453 27.264 154.117 27.232 153.765 27.168C153.429 27.12 153.157 27.056 152.949 26.976L153.021 28.968V31.152L155.253 31.44V32.808H148.125V31.44L149.685 31.152V15.936L148.125 15.504V13.848L152.085 13.344H152.133L152.733 13.824V15.168C153.133 14.672 153.677 14.24 154.365 13.872C155.053 13.504 155.805 13.32 156.621 13.32C158.141 13.32 159.389 13.864 160.365 14.952C161.341 16.024 161.829 17.672 161.829 19.896ZM155.373 15.312C154.893 15.312 154.437 15.416 154.005 15.624C153.573 15.832 153.245 16.064 153.021 16.32V25.224C153.133 25.384 153.357 25.52 153.693 25.632C154.045 25.744 154.429 25.8 154.845 25.8C155.885 25.8 156.709 25.352 157.317 24.456C157.941 23.544 158.253 22.12 158.253 20.184C158.253 18.552 157.989 17.336 157.461 16.536C156.933 15.72 156.237 15.312 155.373 15.312ZM177.063 19.896C177.063 21.24 176.783 22.472 176.223 23.592C175.679 24.712 174.871 25.608 173.799 26.28C172.743 26.936 171.479 27.264 170.007 27.264C169.687 27.264 169.351 27.232 168.999 27.168C168.663 27.12 168.391 27.056 168.183 26.976L168.255 28.968V31.152L170.487 31.44V32.808H163.359V31.44L164.919 31.152V15.936L163.359 15.504V13.848L167.319 13.344H167.367L167.967 13.824V15.168C168.367 14.672 168.911 14.24 169.599 13.872C170.287 13.504 171.039 13.32 171.855 13.32C173.375 13.32 174.623 13.864 175.599 14.952C176.575 16.024 177.063 17.672 177.063 19.896ZM170.607 15.312C170.127 15.312 169.671 15.416 169.239 15.624C168.807 15.832 168.479 16.064 168.255 16.32V25.224C168.367 25.384 168.591 25.52 168.927 25.632C169.279 25.744 169.663 25.8 170.079 25.8C171.119 25.8 171.943 25.352 172.551 24.456C173.175 23.544 173.487 22.12 173.487 20.184C173.487 18.552 173.223 17.336 172.695 16.536C172.167 15.72 171.471 15.312 170.607 15.312ZM181.689 25.032C181.817 25.224 182.105 25.408 182.553 25.584C183.017 25.744 183.481 25.824 183.945 25.824C184.697 25.824 185.257 25.672 185.625 25.368C186.009 25.048 186.201 24.632 186.201 24.12C186.201 23.592 185.969 23.168 185.505 22.848C185.041 22.512 184.257 22.104 183.153 21.624L182.481 21.336C181.377 20.872 180.553 20.312 180.009 19.656C179.465 19 179.193 18.152 179.193 17.112C179.193 16.392 179.409 15.752 179.841 15.192C180.273 14.616 180.881 14.168 181.665 13.848C182.449 13.528 183.353 13.368 184.377 13.368C185.129 13.368 185.769 13.416 186.297 13.512C186.841 13.608 187.409 13.736 188.001 13.896C188.321 14.008 188.561 14.072 188.721 14.088V17.232H186.825L186.273 15.408C186.177 15.248 185.961 15.104 185.625 14.976C185.289 14.848 184.905 14.784 184.473 14.784C183.817 14.784 183.289 14.928 182.889 15.216C182.505 15.488 182.313 15.872 182.313 16.368C182.313 16.816 182.449 17.192 182.721 17.496C182.993 17.784 183.289 18.008 183.609 18.168C183.929 18.328 184.521 18.592 185.385 18.96C186.249 19.328 186.961 19.68 187.521 20.016C188.097 20.352 188.569 20.792 188.937 21.336C189.321 21.864 189.513 22.512 189.513 23.28C189.513 24.464 189.049 25.424 188.121 26.16C187.193 26.896 185.857 27.264 184.113 27.264C183.297 27.264 182.561 27.192 181.905 27.048C181.265 26.904 180.521 26.712 179.673 26.472L179.145 26.304V23.136H181.137L181.689 25.032ZM193.727 27.216C193.231 27.216 192.799 27.048 192.431 26.712C192.063 26.36 191.879 25.92 191.879 25.392C191.879 24.8 192.087 24.32 192.503 23.952C192.935 23.568 193.455 23.376 194.063 23.376C194.639 23.376 195.095 23.56 195.431 23.928C195.767 24.28 195.935 24.704 195.935 25.2C195.935 25.824 195.727 26.32 195.311 26.688C194.911 27.04 194.383 27.216 193.727 27.216ZM202.534 27.216C201.526 27.216 200.782 26.984 200.302 26.52C199.822 26.056 199.582 25.32 199.582 24.312V15.504H198.022V14.256C198.15 14.208 198.382 14.128 198.718 14.016C199.054 13.888 199.31 13.784 199.486 13.704C199.758 13.496 199.99 13.136 200.182 12.624C200.326 12.288 200.59 11.456 200.974 10.128H202.894L202.99 13.656H206.662V15.504H203.014V22.248C203.014 23.144 203.038 23.776 203.086 24.144C203.134 24.512 203.238 24.752 203.398 24.864C203.558 24.96 203.838 25.008 204.238 25.008C204.638 25.008 205.054 24.968 205.486 24.888C205.918 24.792 206.278 24.68 206.566 24.552L207.022 25.896C206.574 26.232 205.918 26.536 205.054 26.808C204.19 27.08 203.35 27.216 202.534 27.216ZM208.299 20.352C208.299 18.848 208.595 17.568 209.187 16.512C209.795 15.456 210.603 14.664 211.611 14.136C212.619 13.592 213.715 13.32 214.899 13.32C216.915 13.32 218.467 13.944 219.555 15.192C220.659 16.424 221.211 18.104 221.211 20.232C221.211 21.752 220.907 23.048 220.299 24.12C219.707 25.176 218.907 25.968 217.899 26.496C216.907 27.008 215.811 27.264 214.611 27.264C212.611 27.264 211.059 26.648 209.955 25.416C208.851 24.168 208.299 22.48 208.299 20.352ZM214.803 25.704C216.611 25.704 217.515 23.96 217.515 20.472C217.515 18.648 217.299 17.264 216.867 16.32C216.435 15.36 215.731 14.88 214.755 14.88C212.899 14.88 211.971 16.624 211.971 20.112C211.971 21.936 212.195 23.328 212.643 24.288C213.107 25.232 213.827 25.704 214.803 25.704ZM228.409 27.264C227.417 27.264 226.529 27.032 225.745 26.568C224.961 26.088 224.337 25.352 223.873 24.36C223.409 23.368 223.177 22.128 223.177 20.64C223.177 19.296 223.449 18.072 223.993 16.968C224.553 15.848 225.369 14.96 226.441 14.304C227.513 13.648 228.801 13.32 230.305 13.32C230.913 13.32 231.489 13.384 232.033 13.512V9.456L229.681 9.12V7.8L234.625 7.32H234.697L235.369 7.824V25.536H236.665V26.904C235.513 27.144 234.561 27.264 233.809 27.264C233.297 27.264 232.929 27.176 232.705 27C232.497 26.84 232.393 26.512 232.393 26.016V25.344C231.977 25.904 231.409 26.368 230.689 26.736C229.969 27.088 229.209 27.264 228.409 27.264ZM229.657 25.272C230.185 25.272 230.649 25.168 231.049 24.96C231.465 24.736 231.793 24.472 232.033 24.168V15.432C231.921 15.272 231.681 15.136 231.313 15.024C230.961 14.912 230.577 14.856 230.161 14.856C229.137 14.856 228.313 15.304 227.689 16.2C227.081 17.08 226.777 18.496 226.777 20.448C226.777 22.08 227.041 23.296 227.569 24.096C228.097 24.88 228.793 25.272 229.657 25.272ZM238.152 23.256C238.152 21.8 238.88 20.704 240.336 19.968C241.808 19.232 243.704 18.856 246.024 18.84V18.288C246.024 17.632 245.952 17.12 245.808 16.752C245.68 16.384 245.432 16.112 245.064 15.936C244.712 15.744 244.192 15.648 243.504 15.648C242.72 15.648 242.016 15.752 241.392 15.96C240.768 16.152 240.12 16.408 239.448 16.728L238.704 15.192C238.944 14.984 239.344 14.736 239.904 14.448C240.48 14.16 241.16 13.912 241.944 13.704C242.728 13.48 243.536 13.368 244.368 13.368C245.6 13.368 246.56 13.528 247.248 13.848C247.952 14.168 248.456 14.68 248.76 15.384C249.064 16.088 249.216 17.032 249.216 18.216V25.56H250.512V26.904C250.192 26.984 249.736 27.064 249.144 27.144C248.552 27.224 248.032 27.264 247.584 27.264C247.04 27.264 246.672 27.184 246.48 27.024C246.304 26.864 246.216 26.536 246.216 26.04V25.392C245.784 25.872 245.224 26.304 244.536 26.688C243.848 27.072 243.072 27.264 242.208 27.264C241.472 27.264 240.792 27.112 240.168 26.808C239.56 26.488 239.072 26.032 238.704 25.44C238.336 24.832 238.152 24.104 238.152 23.256ZM243.744 25.272C244.08 25.272 244.464 25.176 244.896 24.984C245.328 24.776 245.704 24.528 246.024 24.24V20.304C244.584 20.304 243.504 20.552 242.784 21.048C242.08 21.528 241.728 22.152 241.728 22.92C241.728 23.688 241.904 24.272 242.256 24.672C242.624 25.072 243.12 25.272 243.744 25.272ZM254.146 32.976C253.858 32.976 253.546 32.952 253.21 32.904C252.89 32.856 252.658 32.8 252.514 32.736V30.168C252.626 30.232 252.85 30.296 253.186 30.36C253.522 30.424 253.826 30.456 254.098 30.456C254.898 30.456 255.554 30.192 256.066 29.664C256.594 29.136 257.082 28.248 257.53 27H256.234L251.722 15.36L250.642 15.048V13.656H257.242V15.048L255.49 15.336L257.626 21.984L258.49 24.816L259.234 21.984L261.202 15.336L259.69 15.048V13.656H264.898V15.048L263.722 15.336C262.842 18.024 261.97 20.616 261.106 23.112C260.242 25.608 259.738 27.008 259.594 27.312C259.082 28.656 258.594 29.728 258.13 30.528C257.666 31.328 257.114 31.936 256.474 32.352C255.834 32.768 255.058 32.976 254.146 32.976Z" fill="black"/>
<path d="M2.78325 9.69233C15.0936 9.75454 25.0577 19.7187 25.1199 32.029C25.1276 33.5584 23.8941 34.8045 22.3647 34.8122C20.8353 34.8199 19.5892 33.5864 19.5815 32.057C19.5347 22.7836 12.0287 15.2776 2.75528 15.2308C1.2259 15.223 -0.00765254 13.977 3.57443e-05 12.4476C0.00779619 10.9182 1.25387 9.68464 2.78325 9.69233Z" fill="#FFC94F"/>
<path d="M2.85074 0.0012227C20.3386 0.516017 34.3946 14.5721 34.9094 32.0599C34.9544 33.5886 33.7516 34.8644 32.2229 34.9094C30.6941 34.9544 29.4184 33.7516 29.3734 32.2229C28.9448 17.666 17.2446 5.9658 2.68777 5.53729C1.15903 5.49228 -0.0437793 4.21651 0.0012227 2.68777C0.0462247 1.15903 1.322 -0.0437793 2.85074 0.0012227Z" fill="#38ABFF"/>
<path d="M2.78894 19.3845L2.99554 19.3939C9.56627 19.9323 14.7817 25.1477 15.3201 31.7184C15.445 33.2427 14.3105 34.5797 12.7862 34.7046C11.262 34.8295 9.92501 33.695 9.80011 32.1707C9.48308 28.3018 6.41218 25.2309 2.54322 24.9138C1.01893 24.7889 -0.115504 23.452 0.00940002 21.9277C0.128626 20.4727 1.35221 19.3729 2.78894 19.3845Z" fill="#E656CF"/>
</svg>
