<svg width="158" height="158" viewBox="0 0 158 158" fill="none" xmlns="http://www.w3.org/2000/svg">
<path d="M79 10C40.8913 10 10 40.8913 10 79C10 117.109 40.8913 148 79 148C117.109 148 148 117.109 148 79C148 40.8913 117.109 10 79 10ZM118.378 63.1783L70.0783 111.478C68.7328 112.824 66.9664 113.5 65.2 113.5C63.4336 113.5 61.6672 112.824 60.3217 111.478L39.6217 90.7783C36.9238 88.0804 36.9238 83.7196 39.6217 81.0217C42.3196 78.3238 46.6804 78.3238 49.3783 81.0217L65.2 96.8434L108.622 53.4217C111.32 50.7238 115.68 50.7238 118.378 53.4217C121.076 56.1196 121.076 60.4804 118.378 63.1783Z" fill="#C14F49"/>
</svg>
