<svg width="448" height="448" viewBox="0 0 448 448" fill="none" xmlns="http://www.w3.org/2000/svg">
<rect width="448" height="448" rx="224" fill="#DF8076"/>
<path fill-rule="evenodd" clip-rule="evenodd" d="M248.736 157.543C294.563 157.543 331.714 155.765 331.714 135.771C331.714 115.777 294.563 114 248.736 114C202.909 114 165.758 115.777 165.758 135.771C165.758 155.765 202.909 157.543 248.736 157.543ZM200.264 216.695C246.091 216.695 283.242 214.918 283.242 194.924C283.242 174.93 246.091 173.152 200.264 173.152C154.437 173.152 117.286 174.93 117.286 194.924C117.286 214.918 154.437 216.695 200.264 216.695ZM331.714 254.076C331.714 274.07 294.563 275.848 248.736 275.848C202.909 275.848 165.758 274.07 165.758 254.076C165.758 234.082 202.909 232.305 248.736 232.305C294.563 232.305 331.714 234.082 331.714 254.076ZM200.264 335C246.091 335 283.242 333.223 283.242 313.229C283.242 293.234 246.091 291.457 200.264 291.457C154.437 291.457 117.286 293.234 117.286 313.229C117.286 333.223 154.437 335 200.264 335Z" fill="white"/>
</svg>
